<?xml version="1.0" encoding="utf-8"?>
<!-- Generator: Adobe Illustrator 27.6.1, SVG Export Plug-In . SVG Version: 6.00 Build 0)  -->
<svg version="1.1" id="Layer_1" xmlns="http://www.w3.org/2000/svg" xmlns:xlink="http://www.w3.org/1999/xlink" x="0px" y="0px"
	 viewBox="0 0 776.6 142.4" style="enable-background:new 0 0 776.6 142.4;" xml:space="preserve">
<style type="text/css">
	.st0{fill:#584099;}
	.st1{fill:#313241;}
</style>
<path class="st0" d="M140.1,80.8c-5.1-2.8-9.1-6.6-11.9-11.4c-2.9-4.8-4.3-10.3-4.3-16.3c0-5.9,1.4-11.3,4.3-16.2
	c2.9-4.8,6.9-8.7,11.9-11.5c5.1-2.8,10.7-4.2,17-4.2c10.2,0,18.1,3.1,23.7,9.2l-5.1,5.2c-4.9-5-11-7.5-18.4-7.5
	c-4.8,0-9.2,1.1-13.1,3.2s-6.9,5.1-9.1,8.9c-2.2,3.8-3.3,8-3.3,12.7c0,4.7,1.1,8.9,3.3,12.7c2.2,3.8,5.3,6.8,9.1,8.9
	c3.9,2.2,8.3,3.2,13.1,3.2c7.5,0,13.6-2.5,18.4-7.5l5.1,5.2c-5.6,6.2-13.5,9.2-23.7,9.2C150.8,84.9,145.1,83.5,140.1,80.8z"/>
<path class="st0" d="M198.8,81c-4.5-2.5-8-6-10.6-10.5c-2.6-4.5-3.9-9.5-3.9-15.2c0-5.7,1.3-10.7,3.9-15.2c2.6-4.5,6.1-8,10.6-10.5
	c4.5-2.5,9.5-3.7,15.1-3.7s10.6,1.3,15.1,3.7c4.5,2.5,8,6,10.5,10.5c2.5,4.5,3.8,9.5,3.8,15.2c0,5.6-1.3,10.7-3.8,15.2
	c-2.5,4.5-6,8-10.5,10.5c-4.5,2.5-9.5,3.8-15.1,3.8S203.2,83.5,198.8,81z M224.9,75.1c3.3-1.9,5.8-4.5,7.7-8
	c1.8-3.4,2.8-7.4,2.8-11.8c0-4.4-0.9-8.3-2.8-11.8c-1.8-3.4-4.4-6.1-7.7-8c-3.3-1.9-7-2.8-11.1-2.8c-4.1,0-7.8,0.9-11.1,2.8
	c-3.3,1.9-5.8,4.5-7.7,8c-1.9,3.4-2.8,7.4-2.8,11.8c0,4.4,0.9,8.3,2.8,11.8c1.9,3.4,4.4,6.1,7.7,8s7,2.8,11.1,2.8
	C218,77.9,221.7,76.9,224.9,75.1z"/>
<path class="st0" d="M300.6,32.2c4.3,4.2,6.4,10.4,6.4,18.4v33.6h-7.8V51.4c0-6-1.5-10.6-4.5-13.8c-3-3.2-7.3-4.7-12.9-4.7
	c-6.2,0-11.2,1.9-14.8,5.6s-5.4,8.8-5.4,15.4v30.4h-7.8V26.3h7.5V37c2.1-3.5,5.1-6.3,8.9-8.2c3.8-1.9,8.2-2.9,13.2-2.9
	C290.5,25.9,296.3,28,300.6,32.2z"/>
<path class="st0" d="M324.8,82.8c-4.3-1.4-7.7-3.1-10.1-5.1l3.5-6.2c2.4,1.9,5.5,3.5,9.1,4.7c3.7,1.2,7.5,1.8,11.5,1.8
	c5.3,0,9.2-0.8,11.7-2.5c2.5-1.6,3.8-4,3.8-7c0-2.1-0.7-3.8-2.1-5c-1.4-1.2-3.2-2.1-5.3-2.8c-2.1-0.6-5-1.2-8.5-1.8
	c-4.7-0.9-8.5-1.8-11.3-2.7c-2.9-0.9-5.3-2.5-7.3-4.7c-2-2.2-3-5.2-3-9.1c0-4.8,2-8.8,6.1-11.9c4-3.1,9.7-4.6,16.8-4.6
	c3.7,0,7.5,0.5,11.2,1.5c3.7,1,6.8,2.3,9.3,3.9l-3.4,6.3c-4.8-3.3-10.5-5-17.1-5c-5,0-8.8,0.9-11.3,2.6c-2.5,1.8-3.8,4.1-3.8,6.9
	c0,2.2,0.7,4,2.1,5.3c1.4,1.3,3.2,2.3,5.3,2.9c2.1,0.6,5.1,1.3,8.8,1.9c4.6,0.9,8.3,1.8,11.1,2.6c2.8,0.9,5.2,2.4,7.2,4.5
	c2,2.1,3,5.1,3,8.8c0,5.1-2.1,9.1-6.3,12.1c-4.2,3-10.1,4.5-17.6,4.5C333.6,84.8,329.1,84.1,324.8,82.8z"/>
<path class="st0" d="M401.6,80.7c-1.5,1.3-3.3,2.3-5.5,3c-2.2,0.7-4.4,1-6.8,1c-5.4,0-9.6-1.5-12.6-4.4c-2.9-2.9-4.4-7.1-4.4-12.4
	V33h-10.3v-6.6h10.3V13.7h7.8v12.7h17.6V33h-17.6v34.6c0,3.5,0.9,6.1,2.6,7.9c1.7,1.8,4.2,2.7,7.4,2.7c1.6,0,3.2-0.3,4.7-0.8
	c1.5-0.5,2.8-1.3,3.9-2.2L401.6,80.7z"/>
<path class="st0" d="M458.6,57.7h-48.5c0.4,6,2.8,10.9,6.9,14.6c4.2,3.7,9.5,5.6,15.9,5.6c3.6,0,6.9-0.6,9.9-1.9
	c3-1.3,5.6-3.2,7.8-5.7l4.4,5.1c-2.6,3.1-5.8,5.4-9.6,7c-3.9,1.6-8.1,2.4-12.7,2.4c-5.9,0-11.2-1.3-15.8-3.8
	c-4.6-2.5-8.2-6-10.7-10.5c-2.6-4.5-3.9-9.5-3.9-15.2c0-5.7,1.2-10.7,3.7-15.2c2.5-4.5,5.8-8,10.1-10.5c4.3-2.5,9.1-3.7,14.5-3.7
	c5.4,0,10.2,1.3,14.4,3.7c4.3,2.5,7.6,6,10,10.4c2.4,4.4,3.6,9.5,3.6,15.3L458.6,57.7z M416.6,38c-3.8,3.6-5.9,8.2-6.4,13.9h41.1
	c-0.5-5.7-2.7-10.4-6.4-13.9c-3.8-3.6-8.5-5.3-14.1-5.3C425.1,32.6,420.4,34.4,416.6,38z"/>
<path class="st0" d="M469.2,2.6h7.8v81.7h-7.8V2.6z"/>
<path class="st0" d="M493.3,2.6h7.8v81.7h-7.8V2.6z"/>
<path class="st0" d="M555.1,31.6c4,3.8,6.1,9.4,6.1,16.8v35.9h-7.5v-9c-1.8,3-4.4,5.4-7.8,7c-3.4,1.7-7.5,2.5-12.2,2.5
	c-6.5,0-11.6-1.5-15.4-4.6c-3.8-3.1-5.7-7.2-5.7-12.2c0-4.9,1.8-8.9,5.3-11.9c3.6-3,9.2-4.5,17-4.5h18.4V48c0-5-1.4-8.8-4.2-11.4
	c-2.8-2.6-6.9-3.9-12.2-3.9c-3.7,0-7.2,0.6-10.6,1.8c-3.4,1.2-6.3,2.9-8.7,5l-3.5-5.8c2.9-2.5,6.5-4.4,10.6-5.8c4.1-1.4,8.4-2,13-2
	C545.2,25.9,551,27.8,555.1,31.6z M546.3,75.6c3.2-2,5.5-4.9,7-8.8v-9.5h-18.2c-9.9,0-14.9,3.5-14.9,10.4c0,3.4,1.3,6,3.9,8
	c2.6,1.9,6.2,2.9,10.8,2.9C539.3,78.6,543.1,77.6,546.3,75.6z"/>
<path class="st0" d="M607.4,80.7c-1.5,1.3-3.3,2.3-5.5,3c-2.2,0.7-4.4,1-6.8,1c-5.4,0-9.6-1.5-12.6-4.4c-2.9-2.9-4.4-7.1-4.4-12.4
	V33h-10.3v-6.6h10.3V13.7h7.8v12.7h17.6V33H586v34.6c0,3.5,0.9,6.1,2.6,7.9c1.7,1.8,4.2,2.7,7.4,2.7c1.6,0,3.2-0.3,4.7-0.8
	c1.5-0.5,2.8-1.3,3.9-2.2L607.4,80.7z"/>
<path class="st0" d="M616.1,26.3h7.8v57.9h-7.8V26.3z"/>
<path class="st0" d="M648.8,81c-4.5-2.5-8-6-10.6-10.5c-2.6-4.5-3.9-9.5-3.9-15.2c0-5.7,1.3-10.7,3.9-15.2c2.6-4.5,6.1-8,10.6-10.5
	c4.5-2.5,9.5-3.7,15.1-3.7s10.6,1.3,15.1,3.7c4.5,2.5,8,6,10.5,10.5c2.5,4.5,3.8,9.5,3.8,15.2c0,5.6-1.3,10.7-3.8,15.2
	c-2.5,4.5-6,8-10.5,10.5c-4.5,2.5-9.5,3.8-15.1,3.8S653.2,83.5,648.8,81z M674.9,75.1c3.3-1.9,5.8-4.5,7.7-8
	c1.8-3.4,2.8-7.4,2.8-11.8c0-4.4-0.9-8.3-2.8-11.8c-1.8-3.4-4.4-6.1-7.7-8c-3.3-1.9-7-2.8-11.1-2.8c-4.1,0-7.8,0.9-11.1,2.8
	c-3.3,1.9-5.8,4.5-7.7,8c-1.9,3.4-2.8,7.4-2.8,11.8c0,4.4,0.9,8.3,2.8,11.8c1.9,3.4,4.4,6.1,7.7,8c3.3,1.9,7,2.8,11.1,2.8
	C668,77.9,671.7,76.9,674.9,75.1z"/>
<path class="st0" d="M750.6,32.2c4.3,4.2,6.4,10.4,6.4,18.4v33.6h-7.8V51.4c0-6-1.5-10.6-4.5-13.8c-3-3.2-7.3-4.7-12.9-4.7
	c-6.2,0-11.2,1.9-14.8,5.6c-3.6,3.7-5.4,8.8-5.4,15.4v30.4h-7.8V26.3h7.5V37c2.1-3.5,5.1-6.3,8.9-8.2c3.8-1.9,8.2-2.9,13.2-2.9
	C740.5,25.9,746.3,28,750.6,32.2z"/>
<path class="st0" d="M616,12c-1.1-1.1-1.6-2.4-1.6-4c0-1.5,0.6-2.8,1.6-3.9c1.1-1.1,2.5-1.6,4.1-1.6c1.6,0,3,0.5,4.1,1.6
	c1.1,1.1,1.7,2.3,1.7,3.8c0,1.6-0.6,3-1.7,4.1c-1.1,1.1-2.5,1.7-4.1,1.7C618.4,13.7,617.1,13.1,616,12z"/>
<path class="st0" d="M67.3,8.1l5.9,15.4C77,33.7,85,41.7,95.2,45.6l15.4,5.9c1.3,0.7,1.3,2.7,0,3.4l-15.4,5.8
	C85.1,64.5,77,72.6,73.1,82.8l-5.8,15.3c-0.7,1.4-2.7,1.4-3.4,0L58,82.7C54.2,72.6,46.1,64.5,36,60.7l-15.4-5.9
	c-1.3-0.7-1.3-2.7,0-3.4L36,45.6C46.1,41.7,54.2,33.7,58,23.5l5.9-15.4C64.6,6.8,66.5,6.8,67.3,8.1z"/>
<g>
	<path class="st1" d="M126.2,121.9c0.1-1.2,0.1-2.9,0.1-4.4V97.1h3v10.6h0.1c1.1-1.9,3-3.1,5.8-3.1c4.2,0,7.2,3.5,7.1,8.6
		c0,6.1-3.8,9.1-7.6,9.1c-2.5,0-4.4-0.9-5.7-3.2H129l-0.1,2.8H126.2z M129.4,115.1c0,0.4,0.1,0.8,0.1,1.1c0.6,2.1,2.4,3.6,4.6,3.6
		c3.2,0,5.1-2.6,5.1-6.5c0-3.4-1.8-6.3-5-6.3c-2.1,0-4.1,1.4-4.7,3.8c-0.1,0.3-0.2,0.8-0.2,1.3V115.1z"/>
	<path class="st1" d="M146.9,105l3.7,10c0.4,1.1,0.8,2.5,1.1,3.5h0.1c0.3-1,0.7-2.3,1.1-3.5l3.4-9.9h3.3l-4.6,12.1
		c-2.2,5.8-3.7,8.8-5.8,10.6c-1.5,1.3-3,1.9-3.8,2l-0.8-2.6c0.8-0.2,1.8-0.7,2.7-1.5c0.8-0.7,1.9-1.9,2.6-3.4
		c0.1-0.3,0.2-0.6,0.2-0.7c0-0.2-0.1-0.4-0.2-0.8l-6.3-15.6H146.9z"/>
	<path class="st1" d="M189.4,109.9c0,8.1-4.9,12.4-11,12.4c-6.2,0-10.6-4.8-10.6-12c0-7.5,4.7-12.4,11-12.4
		C185.3,98,189.4,102.9,189.4,109.9z M171.1,110.3c0,5,2.7,9.6,7.5,9.6c4.8,0,7.6-4.4,7.6-9.8c0-4.7-2.5-9.6-7.5-9.6
		C173.7,100.4,171.1,105.1,171.1,110.3z"/>
	<path class="st1" d="M202.4,121.9l-0.2-2.1h-0.1c-0.9,1.3-2.8,2.5-5.2,2.5c-3.4,0-5.2-2.4-5.2-4.9c0-4.1,3.6-6.3,10.2-6.3v-0.3
		c0-1.4-0.4-3.9-3.9-3.9c-1.6,0-3.2,0.5-4.4,1.3l-0.7-2c1.4-0.9,3.4-1.5,5.6-1.5c5.2,0,6.4,3.5,6.4,6.9v6.3c0,1.5,0.1,2.9,0.3,4.1
		H202.4z M202,113.3c-3.4-0.1-7.2,0.5-7.2,3.8c0,2,1.3,2.9,2.9,2.9c2.2,0,3.6-1.4,4.1-2.8c0.1-0.3,0.2-0.7,0.2-1V113.3z"/>
	<path class="st1" d="M212.7,112.8L212.7,112.8c0.5-0.6,1.1-1.3,1.6-1.9l5-5.8h3.7l-6.5,7l7.5,10h-3.7l-5.8-8.1l-1.6,1.8v6.4h-3
		V97.1h3V112.8z"/>
	<path class="st1" d="M233.1,98.7c1.5-0.3,3.7-0.5,5.8-0.5c3.3,0,5.4,0.6,6.8,1.9c1.2,1,1.9,2.7,1.9,4.5c0,3.1-2,5.2-4.4,6v0.1
		c1.8,0.6,2.9,2.3,3.5,4.8c0.8,3.3,1.3,5.6,1.8,6.5h-3.2c-0.4-0.7-0.9-2.7-1.6-5.6c-0.7-3.3-2-4.5-4.7-4.6h-2.9v10.2h-3V98.7z
		 M236.2,109.4h3.1c3.3,0,5.3-1.8,5.3-4.5c0-3-2.2-4.4-5.4-4.4c-1.5,0-2.5,0.1-3,0.3V109.4z"/>
	<path class="st1" d="M255.4,100.2c0,1-0.7,1.9-2,1.9c-1.1,0-1.9-0.8-1.9-1.9c0-1.1,0.8-1.9,1.9-1.9
		C254.6,98.3,255.4,99.1,255.4,100.2z M252,121.9V105h3.1v16.9H252z"/>
	<path class="st1" d="M274.5,97.1v20.5c0,1.5,0,3.2,0.1,4.4h-2.8l-0.1-2.9h-0.1c-0.9,1.9-3,3.3-5.8,3.3c-4.1,0-7.2-3.5-7.2-8.6
		c0-5.6,3.5-9.1,7.6-9.1c2.6,0,4.3,1.2,5.1,2.6h0.1V97.1H274.5z M271.4,111.9c0-0.4,0-0.9-0.1-1.3c-0.5-2-2.1-3.6-4.4-3.6
		c-3.2,0-5.1,2.8-5.1,6.5c0,3.4,1.7,6.3,5,6.3c2.1,0,4-1.4,4.5-3.7c0.1-0.4,0.1-0.8,0.1-1.3V111.9z"/>
	<path class="st1" d="M294,105c-0.1,1.2-0.1,2.6-0.1,4.7v9.8c0,3.9-0.8,6.3-2.4,7.7c-1.6,1.5-4,2-6.2,2c-2,0-4.3-0.5-5.6-1.4
		l0.8-2.3c1.1,0.7,2.9,1.3,5,1.3c3.2,0,5.5-1.6,5.5-5.9V119h-0.1c-0.9,1.6-2.8,2.8-5.4,2.8c-4.2,0-7.2-3.6-7.2-8.3
		c0-5.7,3.7-9,7.6-9c2.9,0,4.6,1.5,5.3,2.9h0.1l0.1-2.6H294z M290.8,111.7c0-0.5,0-1-0.2-1.4c-0.6-1.8-2.1-3.3-4.3-3.3
		c-2.9,0-5,2.5-5,6.4c0,3.3,1.7,6.1,5,6.1c1.9,0,3.6-1.2,4.3-3.2c0.2-0.5,0.2-1.1,0.2-1.6V111.7z"/>
	<path class="st1" d="M300.4,114c0.1,4.2,2.7,5.9,5.8,5.9c2.2,0,3.5-0.4,4.7-0.9l0.5,2.2c-1.1,0.5-2.9,1-5.6,1
		c-5.2,0-8.3-3.4-8.3-8.5c0-5.1,3-9.1,7.9-9.1c5.5,0,7,4.9,7,8c0,0.6-0.1,1.1-0.1,1.4H300.4z M309.5,111.8c0-2-0.8-5-4.3-5
		c-3.1,0-4.5,2.9-4.7,5H309.5z"/>
	<path class="st1" d="M323.3,98.3h3v21h10.1v2.6h-13.1V98.3z"/>
	<path class="st1" d="M340.7,114c0.1,4.2,2.7,5.9,5.8,5.9c2.2,0,3.5-0.4,4.7-0.9l0.5,2.2c-1.1,0.5-2.9,1-5.6,1
		c-5.2,0-8.3-3.4-8.3-8.5c0-5.1,3-9.1,7.9-9.1c5.5,0,7,4.9,7,8c0,0.6-0.1,1.1-0.1,1.4H340.7z M349.7,111.8c0-2-0.8-5-4.3-5
		c-3.1,0-4.5,2.9-4.7,5H349.7z"/>
	<path class="st1" d="M365.6,121.9l-0.2-2.1h-0.1c-0.9,1.3-2.8,2.5-5.2,2.5c-3.4,0-5.2-2.4-5.2-4.9c0-4.1,3.6-6.3,10.2-6.3v-0.3
		c0-1.4-0.4-3.9-3.9-3.9c-1.6,0-3.2,0.5-4.4,1.3l-0.7-2c1.4-0.9,3.4-1.5,5.6-1.5c5.2,0,6.4,3.5,6.4,6.9v6.3c0,1.5,0.1,2.9,0.3,4.1
		H365.6z M365.2,113.3c-3.4-0.1-7.2,0.5-7.2,3.8c0,2,1.3,2.9,2.9,2.9c2.2,0,3.6-1.4,4.1-2.8c0.1-0.3,0.2-0.7,0.2-1V113.3z"/>
	<path class="st1" d="M387.5,97.1v20.5c0,1.5,0,3.2,0.1,4.4h-2.8l-0.1-2.9h-0.1c-0.9,1.9-3,3.3-5.8,3.3c-4.1,0-7.2-3.5-7.2-8.6
		c0-5.6,3.5-9.1,7.6-9.1c2.6,0,4.3,1.2,5.1,2.6h0.1V97.1H387.5z M384.4,111.9c0-0.4,0-0.9-0.1-1.3c-0.5-2-2.1-3.6-4.4-3.6
		c-3.2,0-5.1,2.8-5.1,6.5c0,3.4,1.7,6.3,5,6.3c2.1,0,4-1.4,4.5-3.7c0.1-0.4,0.1-0.8,0.1-1.3V111.9z"/>
	<path class="st1" d="M394.1,114c0.1,4.2,2.7,5.9,5.8,5.9c2.2,0,3.5-0.4,4.7-0.9l0.5,2.2c-1.1,0.5-2.9,1-5.6,1
		c-5.2,0-8.3-3.4-8.3-8.5c0-5.1,3-9.1,7.9-9.1c5.5,0,7,4.9,7,8c0,0.6-0.1,1.1-0.1,1.4H394.1z M403.1,111.8c0-2-0.8-5-4.3-5
		c-3.1,0-4.5,2.9-4.7,5H403.1z"/>
	<path class="st1" d="M409.7,110.3c0-2,0-3.7-0.1-5.3h2.7l0.1,3.3h0.1c0.8-2.3,2.6-3.7,4.7-3.7c0.4,0,0.6,0,0.9,0.1v2.9
		c-0.3-0.1-0.6-0.1-1-0.1c-2.2,0-3.7,1.6-4.1,4c-0.1,0.4-0.1,0.9-0.1,1.4v9h-3V110.3z"/>
	<path class="st1" d="M420.4,118.8c0.9,0.6,2.5,1.2,4.1,1.2c2.2,0,3.3-1.1,3.3-2.5c0-1.5-0.9-2.3-3.2-3.1c-3-1.1-4.5-2.8-4.5-4.8
		c0-2.7,2.2-5,5.8-5c1.7,0,3.2,0.5,4.2,1.1l-0.8,2.2c-0.7-0.4-1.9-1-3.5-1c-1.8,0-2.8,1-2.8,2.3c0,1.4,1,2,3.2,2.9
		c2.9,1.1,4.4,2.6,4.4,5.1c0,3-2.3,5.1-6.3,5.1c-1.9,0-3.6-0.5-4.8-1.2L420.4,118.8z"/>
	<path class="st1" d="M434.5,97.1h3.1v10.6h0.1c0.5-0.9,1.3-1.6,2.2-2.2c0.9-0.5,2-0.9,3.2-0.9c2.3,0,5.9,1.4,5.9,7.2v10.1h-3.1
		v-9.7c0-2.7-1-5-3.9-5c-2,0-3.6,1.4-4.1,3.1c-0.2,0.4-0.2,0.9-0.2,1.5v10.2h-3.1V97.1z"/>
	<path class="st1" d="M457.1,100.2c0,1-0.7,1.9-2,1.9c-1.1,0-1.9-0.8-1.9-1.9c0-1.1,0.8-1.9,1.9-1.9
		C456.3,98.3,457.1,99.1,457.1,100.2z M453.7,121.9V105h3.1v16.9H453.7z"/>
	<path class="st1" d="M461.6,110.5c0-2.2-0.1-3.9-0.1-5.5h2.8l0.1,2.9h0.1c1.3-2.1,3.3-3.3,6-3.3c4.1,0,7.2,3.5,7.2,8.6
		c0,6.1-3.7,9.1-7.7,9.1c-2.2,0-4.2-1-5.2-2.7h-0.1v9.2h-3V110.5z M464.6,115c0,0.5,0.1,0.9,0.1,1.3c0.6,2.1,2.4,3.6,4.6,3.6
		c3.3,0,5.1-2.7,5.1-6.5c0-3.4-1.8-6.3-5-6.3c-2.1,0-4.1,1.5-4.7,3.8c-0.1,0.4-0.2,0.8-0.2,1.3V115z"/>
	<path class="st1" d="M505,121.2c-1.1,0.6-3.4,1.1-6.2,1.1c-6.7,0-11.7-4.2-11.7-11.9c0-7.4,5-12.4,12.3-12.4c2.9,0,4.8,0.6,5.6,1
		l-0.7,2.5c-1.2-0.6-2.8-1-4.8-1c-5.5,0-9.2,3.5-9.2,9.7c0,5.8,3.3,9.5,9.1,9.5c1.9,0,3.7-0.4,5-1L505,121.2z"/>
	<path class="st1" d="M523.4,113.3c0,6.3-4.3,9-8.4,9c-4.6,0-8.1-3.4-8.1-8.7c0-5.7,3.7-9,8.4-9
		C520.2,104.6,523.4,108.1,523.4,113.3z M510,113.5c0,3.7,2.1,6.5,5.1,6.5c2.9,0,5.1-2.8,5.1-6.6c0-2.9-1.4-6.5-5.1-6.5
		C511.6,106.9,510,110.3,510,113.5z"/>
	<path class="st1" d="M527.1,109.6c0-1.8,0-3.2-0.1-4.6h2.7l0.1,2.7h0.1c0.9-1.6,2.5-3.1,5.3-3.1c2.3,0,4.1,1.4,4.8,3.4h0.1
		c0.5-0.9,1.2-1.7,1.9-2.2c1-0.8,2.1-1.2,3.7-1.2c2.2,0,5.6,1.5,5.6,7.4v10h-3v-9.6c0-3.3-1.2-5.2-3.7-5.2c-1.8,0-3.1,1.3-3.6,2.8
		c-0.1,0.4-0.2,1-0.2,1.5v10.5h-3v-10.2c0-2.7-1.2-4.7-3.5-4.7c-1.9,0-3.3,1.5-3.8,3.1c-0.2,0.5-0.2,1-0.2,1.5v10.2h-3V109.6z"/>
	<path class="st1" d="M556,110.5c0-2.2-0.1-3.9-0.1-5.5h2.8l0.1,2.9h0.1c1.3-2.1,3.3-3.3,6-3.3c4.1,0,7.2,3.5,7.2,8.6
		c0,6.1-3.7,9.1-7.7,9.1c-2.2,0-4.2-1-5.2-2.7h-0.1v9.2h-3V110.5z M559.1,115c0,0.5,0.1,0.9,0.1,1.3c0.6,2.1,2.4,3.6,4.6,3.6
		c3.3,0,5.1-2.7,5.1-6.5c0-3.4-1.8-6.3-5-6.3c-2.1,0-4.1,1.5-4.7,3.8c-0.1,0.4-0.2,0.8-0.2,1.3V115z"/>
	<path class="st1" d="M589.9,117.3c0,1.8,0,3.3,0.1,4.6h-2.7l-0.2-2.8H587c-0.8,1.4-2.6,3.2-5.6,3.2c-2.7,0-5.8-1.5-5.8-7.4V105h3.1
		v9.4c0,3.2,1,5.4,3.8,5.4c2.1,0,3.5-1.4,4.1-2.8c0.2-0.5,0.3-1,0.3-1.6V105h3.1V117.3z"/>
	<path class="st1" d="M598.4,100.1v4.9h4.4v2.3h-4.4v9.1c0,2.1,0.6,3.3,2.3,3.3c0.8,0,1.4-0.1,1.8-0.2l0.1,2.3
		c-0.6,0.2-1.5,0.4-2.7,0.4c-1.4,0-2.6-0.5-3.3-1.3c-0.9-0.9-1.2-2.4-1.2-4.4v-9.2h-2.6V105h2.6v-4.1L598.4,100.1z"/>
	<path class="st1" d="M609.5,100.2c0,1-0.7,1.9-2,1.9c-1.1,0-1.9-0.8-1.9-1.9c0-1.1,0.8-1.9,1.9-1.9
		C608.8,98.3,609.5,99.1,609.5,100.2z M606.1,121.9V105h3.1v16.9H606.1z"/>
	<path class="st1" d="M614,109.6c0-1.8,0-3.2-0.1-4.6h2.7l0.2,2.8h0.1c0.8-1.6,2.8-3.2,5.6-3.2c2.3,0,6,1.4,6,7.2v10.1h-3.1v-9.8
		c0-2.7-1-5-3.9-5c-2,0-3.6,1.4-4.1,3.2c-0.1,0.4-0.2,0.9-0.2,1.4v10.2H614V109.6z"/>
	<path class="st1" d="M647.8,105c-0.1,1.2-0.1,2.6-0.1,4.7v9.8c0,3.9-0.8,6.3-2.4,7.7c-1.6,1.5-4,2-6.2,2c-2,0-4.3-0.5-5.6-1.4
		l0.8-2.3c1.1,0.7,2.9,1.3,5,1.3c3.2,0,5.5-1.6,5.5-5.9V119h-0.1c-0.9,1.6-2.8,2.8-5.4,2.8c-4.2,0-7.2-3.6-7.2-8.3
		c0-5.7,3.7-9,7.6-9c2.9,0,4.6,1.5,5.3,2.9h0.1l0.1-2.6H647.8z M644.6,111.7c0-0.5,0-1-0.2-1.4c-0.6-1.8-2.1-3.3-4.3-3.3
		c-2.9,0-5,2.5-5,6.4c0,3.3,1.7,6.1,5,6.1c1.9,0,3.6-1.2,4.3-3.2c0.2-0.5,0.2-1.1,0.2-1.6V111.7z"/>
	<path class="st1" d="M659.8,98.3h12.7v2.6h-9.7v7.8h8.9v2.5h-8.9v10.7h-3V98.3z"/>
	<path class="st1" d="M684.3,121.9l-0.2-2.1H684c-0.9,1.3-2.8,2.5-5.2,2.5c-3.4,0-5.2-2.4-5.2-4.9c0-4.1,3.6-6.3,10.2-6.3v-0.3
		c0-1.4-0.4-3.9-3.9-3.9c-1.6,0-3.2,0.5-4.4,1.3l-0.7-2c1.4-0.9,3.4-1.5,5.6-1.5c5.2,0,6.4,3.5,6.4,6.9v6.3c0,1.5,0.1,2.9,0.3,4.1
		H684.3z M683.8,113.3c-3.4-0.1-7.2,0.5-7.2,3.8c0,2,1.3,2.9,2.9,2.9c2.2,0,3.6-1.4,4.1-2.8c0.1-0.3,0.2-0.7,0.2-1V113.3z"/>
	<path class="st1" d="M703.6,121.3c-0.8,0.4-2.6,1-4.9,1c-5.1,0-8.4-3.5-8.4-8.6c0-5.2,3.6-9,9.1-9c1.8,0,3.4,0.5,4.3,0.9l-0.7,2.4
		c-0.7-0.4-1.9-0.8-3.6-0.8c-3.9,0-6,2.9-6,6.4c0,3.9,2.5,6.3,5.9,6.3c1.8,0,2.9-0.5,3.8-0.8L703.6,121.3z"/>
	<path class="st1" d="M710.4,100.2c0,1-0.7,1.9-2,1.9c-1.1,0-1.9-0.8-1.9-1.9c0-1.1,0.8-1.9,1.9-1.9
		C709.7,98.3,710.4,99.1,710.4,100.2z M707,121.9V105h3.1v16.9H707z"/>
	<path class="st1" d="M714.9,97.1h3.1v24.9h-3.1V97.1z"/>
	<path class="st1" d="M726.4,100.2c0,1-0.7,1.9-2,1.9c-1.1,0-1.9-0.8-1.9-1.9c0-1.1,0.8-1.9,1.9-1.9
		C725.6,98.3,726.4,99.1,726.4,100.2z M722.9,121.9V105h3.1v16.9H722.9z"/>
	<path class="st1" d="M734.6,100.1v4.9h4.4v2.3h-4.4v9.1c0,2.1,0.6,3.3,2.3,3.3c0.8,0,1.4-0.1,1.8-0.2l0.1,2.3
		c-0.6,0.2-1.5,0.4-2.7,0.4c-1.4,0-2.6-0.5-3.3-1.3c-0.9-0.9-1.2-2.4-1.2-4.4v-9.2H729V105h2.6v-4.1L734.6,100.1z"/>
	<path class="st1" d="M743.7,105l3.7,10c0.4,1.1,0.8,2.5,1.1,3.5h0.1c0.3-1,0.7-2.3,1.1-3.5l3.4-9.9h3.3l-4.6,12.1
		c-2.2,5.8-3.7,8.8-5.8,10.6c-1.5,1.3-3,1.9-3.8,2l-0.8-2.6c0.8-0.2,1.8-0.7,2.7-1.5c0.8-0.7,1.9-1.9,2.6-3.4
		c0.1-0.3,0.2-0.6,0.2-0.7c0-0.2-0.1-0.4-0.2-0.8l-6.3-15.6H743.7z"/>
</g>
</svg>
